<svg width="107" height="52" viewBox="0 0 107 52" fill="none" xmlns="http://www.w3.org/2000/svg">
<path d="M0 41.271V31.4204C2.4915 34.6365 7.00315 40.2333 9.49465 40.6637C11.9862 41.0941 13.5349 39.6517 12.7269 36.818C12.5249 36.4356 12.0131 35.5765 11.5821 35.1987C11.0434 34.7264 3.83826 28.7891 1.54877 24.606C0.493812 22.4245 -0.808055 18.3988 1.21208 15.2278C3.0751 11.7868 8.98288 7.09096 17.7099 15.835L17.9119 25.2132C15.9366 23.0317 11.7033 18.5608 10.5721 18.129C9.15796 17.5892 6.59912 17.6567 7.13782 21.0301C7.83814 23.0812 8.68659 23.3241 10.5721 25.2132C12.4575 27.1024 19.73 30.7457 20.134 41.3384C20.4034 41.3384 23.2316 21.9747 24.5784 12.3266C23.6626 10.9232 21.5481 9.08805 20.6054 8.34589C30.5176 6.18687 31.6488 22.7169 34.9484 28.3168C39.3658 13.3656 41.9964 7.51378 42.7596 6.45676C42.9212 6.13291 45.6551 27.5072 47.0019 38.2348C47.9082 45.4541 48.6853 46.1962 51.5135 47.9504C39.3927 51.4588 42.0189 37.0204 40.2008 27.912L34.4097 45.4541L27.9452 27.912C27.622 27.5342 26.5985 34.0517 26.1271 37.3577C25.3191 45.9938 23.1867 50.7167 22.2215 51.9986C20.4977 49.5157 18.7199 45.1167 18.0466 43.2276C10.5586 52.6733 2.89553 45.8589 0 41.271Z" fill="#50614A"/>
<path d="M50.6378 42.7586L50.4358 25.4865C48.1733 25.2166 47.1587 29.1073 46.9343 31.0864C46.5751 29.0398 46.7727 24.2315 50.4358 21.3708C51.2888 20.7411 53.5873 19.2793 55.9575 18.4696C64.9135 14.4889 60.4019 4.57096 56.4963 4.57096C64.1458 2.57391 70.9964 16.3331 73.4654 23.4623C77.9367 10.4542 80.5808 7.11224 81.344 7.06728C82.3136 5.44802 84.4415 24.9242 85.3842 34.8647C84.8455 34.7567 81.4337 36.394 79.7952 37.2261L78.9198 24.7443L72.994 40.1273L67.4723 24.7443C67.7417 41.5306 61.5242 46.0421 58.3817 46.1995C62.7991 43.2309 62.6016 24.4069 61.9506 15.366C62.7048 15.1501 62.0404 14.6913 61.6139 14.4889C61.9372 19.6166 56.8105 22.113 54.2068 22.7202C55.4996 22.9361 55.9127 23.3049 55.9575 23.4623V42.6237C55.7573 44.0724 54.909 46.8772 53.3733 47.4003C51.6666 46.4701 50.8389 43.8104 50.6378 42.7586Z" fill="#50614A"/>
<path d="M50.5707 11.4509V19.8171C51.491 19.2998 53.8703 18.1573 56.0251 17.7255V13.2051C56.0251 10.4523 53.152 8.32481 51.7155 7.60514C44.3083 3.82681 47.5405 0.048578 51.5135 4.77142V2.67983C51.2441 0.183495 45.9244 -1.9755 44.7797 3.01718C44.241 6.99791 46.6651 8.34729 50.5707 11.4509Z" fill="#50614A"/>
<path d="M95.6207 23.8656L92.6578 33.2438C91.1988 33.3788 88.0788 33.7701 87.2708 34.2559L96.1594 6.86328L107.001 43.904C105.497 45.1859 102.247 47.7632 101.277 47.8172C100.424 44.7811 98.6374 38.7223 98.3142 38.7763C84.1463 38.7763 73.6012 46.108 70.0996 49.7738C75.3789 36.3339 91.109 33.5137 98.3142 33.7836L95.6207 23.8656Z" fill="#50614A"/>
</svg>
