<svg width="32" height="32" viewBox="0 0 32 32" fill="none" xmlns="http://www.w3.org/2000/svg">
<g clip-path="url(#clip0_441_5140)">
<path d="M5.22222 30H27.7778C29.5548 30 31 28.6994 31 27.1V11.15C31 10.7654 30.8303 10.3966 30.5281 10.1247C30.226 9.85277 29.8162 9.7 29.3889 9.7H24.5556V8.25C24.5556 4.25235 20.9418 1 16.5 1C12.0582 1 8.44444 4.25235 8.44444 8.25V9.7H3.61111C3.18382 9.7 2.77403 9.85277 2.47188 10.1247C2.16974 10.3966 2 10.7654 2 11.15V27.1C2 28.6994 3.44517 30 5.22222 30ZM11.6667 8.25C11.6667 5.8517 13.8352 3.9 16.5 3.9C19.1648 3.9 21.3333 5.8517 21.3333 8.25V9.7H11.6667V8.25ZM5.22222 12.6H8.44444V15.5H11.6667V12.6H21.3333V15.5H24.5556V12.6H27.7778L27.781 27.1H5.22222V12.6Z" fill="#50614A"/>
</g>
<defs>
<clipPath id="clip0_441_5140">
<rect width="32" height="32" fill="white"/>
</clipPath>
</defs>
</svg>
