<svg width="153" height="74" viewBox="0 0 153 74" fill="none" xmlns="http://www.w3.org/2000/svg">
<path d="M0 58.7335V44.7155C3.56262 49.2921 10.0138 57.2569 13.5765 57.8694C17.1391 58.4819 19.3537 56.4292 18.1982 52.3966C17.9094 51.8525 17.1776 50.6299 16.5614 50.0922C15.7911 49.4201 5.48836 40.9709 2.2146 35.018C0.706104 31.9136 -1.15544 26.1847 1.73317 21.6721C4.3971 16.7753 12.8447 10.0927 25.3235 22.5362L25.6123 35.8821C22.7879 32.7777 16.7347 26.4152 15.1171 25.8007C13.095 25.0325 9.43612 25.1286 10.2064 29.9293C11.2078 32.8481 12.421 33.1938 15.1171 35.8821C17.8131 38.5705 28.2121 43.7553 28.7898 58.8295C29.175 58.8295 33.219 31.2735 35.1447 17.5434C33.8352 15.5464 30.8118 12.9348 29.4638 11.8786C43.6373 8.80616 45.2549 32.3296 49.9729 40.2988C56.2894 19.0221 60.051 10.6945 61.1422 9.19024C61.3733 8.72937 65.2826 39.1466 67.2083 54.4129C68.5042 64.6864 69.6155 65.7426 73.6595 68.2389C56.3279 73.2317 60.0831 52.6846 57.4833 39.7227L49.2026 64.6864L39.9591 39.7227C39.4969 39.185 38.0334 48.46 37.3593 53.1647C36.2039 65.4545 33.1548 72.1755 31.7747 73.9998C29.3098 70.4665 26.7678 64.2063 25.8049 61.5179C15.0978 74.9599 4.14034 65.2625 0 58.7335Z" fill="#434F3F"/>
<path d="M72.4081 60.846L72.1192 36.2664C68.884 35.8823 67.4333 41.4191 67.1123 44.2356C66.5988 41.3231 66.8812 34.4805 72.1192 30.4095C73.3389 29.5134 76.6255 27.4331 80.0148 26.2809C92.8209 20.616 86.3697 6.50201 80.7851 6.50201C91.7233 3.66005 101.519 23.2405 105.049 33.3859C111.443 14.8743 115.224 10.1185 116.315 10.0545C117.701 7.75013 120.744 35.4662 122.092 49.6123C121.322 49.4587 116.443 51.7886 114.1 52.9728L112.849 35.2102L104.375 57.1014L96.4798 35.2102C96.865 59.0985 87.9745 65.5186 83.4811 65.7427C89.7975 61.518 89.5151 34.7301 88.5843 21.8642C89.6627 21.557 88.7127 20.9041 88.1029 20.616C88.565 27.9131 81.2344 31.4656 77.5113 32.3298C79.36 32.637 79.9506 33.1619 80.0148 33.3859V60.654C79.7285 62.7156 78.5155 66.7071 76.3196 67.4515C73.8792 66.1277 72.6955 62.3428 72.4081 60.846Z" fill="#434F3F"/>
<path d="M72.3112 16.2955V28.2013C73.6271 27.4651 77.0292 25.8393 80.1104 25.2248V18.7919C80.1104 14.8745 76.0022 11.8469 73.948 10.8227C63.3565 5.44585 67.9783 0.0691303 73.6592 6.7901V3.81361C73.2741 0.261128 65.6674 -2.81129 64.0305 4.29368C63.2602 9.95856 66.7265 11.8788 72.3112 16.2955Z" fill="#434F3F"/>
<path d="M136.727 33.9622L132.491 47.3081C130.404 47.5002 125.943 48.057 124.788 48.7483L137.497 9.7666L153 62.4784C150.849 64.3026 146.202 67.9704 144.815 68.0472C143.596 63.7265 141.041 55.1045 140.579 55.1813C120.32 55.1813 105.241 65.6148 100.234 70.8316C107.783 51.7056 130.276 47.6922 140.579 48.0762L136.727 33.9622Z" fill="#434F3F"/>
</svg>
