<svg width="32" height="32" viewBox="0 0 32 32" fill="none" xmlns="http://www.w3.org/2000/svg">
<g clip-path="url(#clip0_441_5137)">
<path d="M5.33301 29.3335C5.33301 26.5045 6.45681 23.7914 8.4572 21.791C10.4576 19.7906 13.1707 18.6668 15.9997 18.6668C18.8286 18.6668 21.5418 19.7906 23.5421 21.791C25.5425 23.7914 26.6663 26.5045 26.6663 29.3335H23.9997C23.9997 27.2118 23.1568 25.1769 21.6565 23.6766C20.1562 22.1763 18.1214 21.3335 15.9997 21.3335C13.8779 21.3335 11.8431 22.1763 10.3428 23.6766C8.84253 25.1769 7.99967 27.2118 7.99967 29.3335H5.33301ZM15.9997 17.3335C11.5797 17.3335 7.99967 13.7535 7.99967 9.3335C7.99967 4.9135 11.5797 1.3335 15.9997 1.3335C20.4197 1.3335 23.9997 4.9135 23.9997 9.3335C23.9997 13.7535 20.4197 17.3335 15.9997 17.3335ZM15.9997 14.6668C18.9463 14.6668 21.333 12.2802 21.333 9.3335C21.333 6.38683 18.9463 4.00016 15.9997 4.00016C13.053 4.00016 10.6663 6.38683 10.6663 9.3335C10.6663 12.2802 13.053 14.6668 15.9997 14.6668Z" fill="#50614A"/>
</g>
<defs>
<clipPath id="clip0_441_5137">
<rect width="32" height="32" fill="white"/>
</clipPath>
</defs>
</svg>
